<svg id="Capa_1" enable-background="new 0 0 512 512" height="30" viewBox="0 0 512 512" width="30" xmlns="http://www.w3.org/2000/svg"><g><g><path d="m423.167 138.435h-25.847c-14.674 0-27.984-8.847-34.736-23.089-16.977-35.804-45.43-51.572-66.309-58.495-30.993-10.276-66.291-7.886-94.42 6.393-16.664 8.458-39.289 24.364-52.441 52.103-6.752 14.241-20.062 23.089-34.736 23.089h-25.846c-9.441 0-17.095-7.437-17.095-16.611s7.654-16.611 17.095-16.611h25.847c.765 0 2.464-1.197 3.682-3.768 17.188-36.249 46.284-56.795 67.665-67.648 36.264-18.41 81.608-21.545 121.291-8.388 38.463 12.753 69.119 39.756 86.322 76.036 1.218 2.571 2.917 3.768 3.682 3.768h25.847c9.441 0 17.095 7.437 17.095 16.611s-7.654 16.61-17.096 16.61z" fill="#dc8758"/></g><g><path d="m440.26 121.819c0 6.025-3.301 11.296-8.232 14.216-1.073-8.408-8.459-14.917-17.414-14.917-5.257 0-10.515 0-15.772 0-7.682 0-13.217-1.533-16.963-8.758-5.489-10.586-12.481-20.854-20.301-29.773-17.607-20.078-40.582-35.005-65.901-43.402-40.75-13.514-87.297-10.296-124.529 8.614-8.81 4.467-18.889 10.543-28.948 18.611 14.474-15.506 30.619-25.904 43.824-32.61 36.262-18.415 81.613-21.551 121.289-8.387 38.47 12.751 69.12 39.749 86.327 76.032 1.217 2.569 2.92 3.765 3.683 3.765h25.843c9.439 0 17.094 7.438 17.094 16.609z" fill="#c86d36"/></g><path d="m45.633 297.004h-31.944c-7.56 0-13.689-6.128-13.689-13.688v-76.499c0-7.56 6.129-13.689 13.689-13.689h31.945v103.876z" fill="#fdf6ec"/><path d="m498.311 297.004h-31.944v-103.876h31.944c7.56 0 13.689 6.129 13.689 13.689v76.499c-.001 7.56-6.13 13.688-13.689 13.688z" fill="#fdf6ec"/><path d="m512 206.818v76.496c0 7.562-6.128 13.69-13.69 13.69h-14.67c7.562 0 13.69-6.128 13.69-13.69v-76.496c0-7.562-6.128-13.69-13.69-13.69h14.67c7.562 0 13.69 6.128 13.69 13.69z" fill="#fef1da"/><path d="m462.635 494.629h-413.271c-11.064 0-20.033-8.969-20.033-20.033v-281.468h453.337v281.467c0 11.065-8.969 20.034-20.033 20.034z" fill="#dc8758"/><path d="m482.671 193.128v281.472c0 11.059-8.975 20.024-20.034 20.024h-21.293c11.059 0 20.035-8.965 20.035-20.024v-281.472z" fill="#c86d36"/><path d="m29.331 156.477v105.428l226.669 59.647 226.669-59.646v-105.429c0-11.064-8.969-20.033-20.033-20.033h-413.272c-11.064 0-20.033 8.969-20.033 20.033z" fill="#ecbba3"/><path d="m482.671 156.474v105.433l-21.293 5.602v-109.105c0-12.122-8.986-21.953-20.065-21.953h-392.291c.113-.01.227-.01.34-.01h413.273c11.06-.001 20.036 8.974 20.036 20.033z" fill="#e8ad8c"/><path d="m271.684 371.047h-31.369c-8.092 0-14.652-6.56-14.652-14.652v-44.738c0-8.092 6.56-14.652 14.652-14.652h31.369c8.092 0 14.652 6.56 14.652 14.652v44.738c.001 8.092-6.559 14.652-14.652 14.652z" fill="#fdf6ec"/><path d="m286.34 311.653v44.742c0 8.088-6.561 14.649-14.659 14.649h-20.488c8.098 0 14.649-6.561 14.649-14.649v-44.742c0-8.088-6.551-14.649-14.649-14.649h20.488c8.098 0 14.659 6.561 14.659 14.649z" fill="#fef1da"/></g></svg>