<svg id="Capa_1" enable-background="new 0 0 512 512" height="30" viewBox="0 0 512 512" width="30" xmlns="http://www.w3.org/2000/svg"><g><g><g><g><g><g><g><ellipse cx="256" cy="256" fill="#a3d4ff" rx="256" ry="256" transform="matrix(.707 -.707 .707 .707 -106.039 256)"/></g></g></g></g></g></g><path d="m376.027 125.748-9.166 16.814-75.01-75.01-.354.659-19.547-19.546-174.473 142.215 160.228 160.228-37.556 105.122 55.06 55.06c130.266-9.664 233.399-116.809 236.708-248.747z" fill="#65b1fc"/><g><path d="m255.818 456.23h-35.669l19.901-407.565h15.768l4.932 82.435z" fill="#b46e5a"/></g><g><path d="m271.95 48.665h-16.132v407.565h36.033z" fill="#915041"/></g><g><path d="m256 157.439c59.973 0 115.086 12.515 158.523 33.442-18.438-65.535-82.422-113.881-158.523-113.881s-140.085 48.346-158.523 113.881c43.437-20.927 98.55-33.442 158.523-33.442z" fill="#9196aa"/></g><g><path d="m414.523 190.88c-18.438-65.534-82.422-113.88-158.523-113.88-.061 0-.121.002-.182.002v80.438c.061 0 .121-.001.182-.001 59.973 0 115.087 12.515 158.523 33.441z" fill="#707789"/></g><g><path d="m220.149 67.552h39.81v100.679h-39.81z" fill="#636978"/></g><g><path d="m255.818 67.552h36.032v100.678h-36.032z" fill="#414952"/></g></g></svg>