<svg height="30" viewBox="0 0 128 128" width="30" xmlns="http://www.w3.org/2000/svg"><g id="Circle_Grid" data-name="Circle Grid"><circle cx="64" cy="64" fill="#f6c863" r="64"/></g><g id="icon"><path d="m82.519 44.84h-37.039v-12.493a6.18 6.18 0 0 1 6.173-6.173h24.693a6.18 6.18 0 0 1 6.173 6.173zm-31.748-5.291h26.457v-7.2a.883.883 0 0 0 -.882-.882h-24.693a.883.883 0 0 0 -.882.882z" fill="#414451"/><path d="m26.844 53.068h74.313a0 0 0 0 1 0 0v41.782a2.976 2.976 0 0 1 -2.976 2.976h-68.361a2.976 2.976 0 0 1 -2.976-2.976v-41.782a0 0 0 0 1 0 0z" fill="#62667c"/><rect fill="#62667c" height="25.108" rx="2.976" width="82" x="23" y="39.365"/><path d="m26.844 64.474h74.313v3.534h-74.313z" fill="#575b6d"/><rect fill="#f6c863" height="11.17" rx=".882" width="10.289" x="58.856" y="59.869"/><path d="m60.565 62.415h6.871v6.079h-6.871z" fill="#eab54e" transform="matrix(0 1 -1 0 129.454 1.454)"/></g></svg>