<?xml version="1.0" encoding="iso-8859-1"?>
<!-- Generator: Adobe Illustrator 19.0.0, SVG Export Plug-In . SVG Version: 6.00 Build 0)  -->
<svg version="1.1" id="Capa_1" xmlns="http://www.w3.org/2000/svg" xmlns:xlink="http://www.w3.org/1999/xlink" x="0px" y="0px"
	 viewBox="0 0 406.465 406.465" style="enable-background:new 0 0 406.465 406.465;" xml:space="preserve">
<path style="fill:#4DCFE0;" d="M403.331,129.995L299.363,26.55c-3.135-3.135-7.314-3.657-11.494-2.09
	c-3.657,1.567-6.269,5.224-6.269,9.404v51.722c-52.767,2.09-79.412,24.033-83.592,27.69
	c-62.694,52.245-55.902,123.298-53.812,137.404v0.522l2.09,12.016c0.522,4.18,4.18,7.837,8.359,8.359c0.522,0,1.045,0,2.09,0
	c3.657,0,6.792-2.09,8.882-5.224l6.269-10.449c38.139-63.739,86.727-70.008,109.714-68.441v53.812c0,4.18,2.612,7.837,6.269,9.404
	s8.359,0.522,11.494-2.09l103.967-104.49c2.09-2.09,3.135-4.702,3.135-7.314C406.465,134.697,405.42,132.085,403.331,129.995z"/>
<path style="fill:#3A2C51;" d="M350.041,291.432c-8.882,0-15.673,6.792-15.673,15.673v44.408H31.347V121.636h94.041
	c8.882,0,15.673-6.792,15.673-15.673s-6.792-15.673-15.673-15.673H15.673C6.792,90.289,0,97.081,0,105.963v261.224
	c0,8.882,6.792,15.673,15.673,15.673h334.367c8.882,0,15.673-6.792,15.673-15.673v-60.082
	C365.714,298.224,358.922,291.432,350.041,291.432z"/>
<g>
</g>
<g>
</g>
<g>
</g>
<g>
</g>
<g>
</g>
<g>
</g>
<g>
</g>
<g>
</g>
<g>
</g>
<g>
</g>
<g>
</g>
<g>
</g>
<g>
</g>
<g>
</g>
<g>
</g>
</svg>
